<?xml version="1.0" encoding="utf-8"?>
<!-- Generator: Adobe Illustrator 27.5.0, SVG Export Plug-In . SVG Version: 6.00 Build 0)  -->
<svg version="1.1" xmlns="http://www.w3.org/2000/svg" xmlns:xlink="http://www.w3.org/1999/xlink" x="0px" y="0px"
	 viewBox="0 0 500 500" style="enable-background:new 0 0 500 500;" xml:space="preserve">
<g id="Background_Simple">
	<g>
		<g>
			<path style="fill:#C6FF00;" d="M183.688,389.991c2.347,0.03,4.735,0.023,7.173-0.028c6.076-0.127,11.694-0.517,16.926-1.117
				V274.672h-24.099V389.991z"/>
			<path style="fill:#C6FF00;" d="M228.266,385.01c9.417-2.536,17.247-5.828,24.099-9.383V274.672h-24.099V385.01z"/>
			<path style="fill:#C6FF00;" d="M272.844,363.223c7.992-5.17,15.375-9.675,24.099-11.927v-76.623h-24.099V363.223z"/>
			<path style="fill:#C6FF00;" d="M317.422,350.23c8.616,0.962,16.477,3.286,24.099,5.76v-81.318h-24.099V350.23z"/>
			<path style="fill:#C6FF00;" d="M69.501,311.08c1.404,3.828,2.917,7.578,4.551,11.241v-47.648H61.324
				C62.633,287.437,65.402,299.9,69.501,311.08z"/>
			<path style="fill:#C6FF00;" d="M94.532,354.794c6.77,7.572,14.712,14.19,24.099,19.583v-99.705H94.532V354.794z"/>
			<path style="fill:#C6FF00;" d="M139.11,383.348c7.337,2.357,15.346,4.132,24.099,5.255V274.672H139.11V383.348z"/>
			<path style="fill:#C6FF00;" d="M362,362.165c7.628,1.751,15.488,2.543,24.099,1.164v-88.657H362V362.165z"/>
			<path style="fill:#C6FF00;" d="M420.519,140.632c-6.471-12.871-14.625-26.002-24.865-38.138
				C354.695,53.95,272.019,69.12,240.163,94.15c-31.857,25.03-33.374,59.921-60.68,69.023c-27.306,9.102-48.544-8.343-84.951,13.653
				c-24.643,14.889-35.035,50.28-34.005,85.71h383.366c0.188-2.883,0.343-5.712,0.461-8.452
				C446.045,214.862,438.154,175.708,420.519,140.632z M96.591,214.319L92,211.905l-4.591,2.413l0.877-5.112l-3.714-3.62
				l5.133-0.746L92,200.19l2.295,4.651l5.133,0.746l-3.714,3.62L96.591,214.319z M201.377,224.406l-6.619,8.547L192,222.5
				l-10.174-3.654l9.089-5.853l0.331-10.805l8.375,6.836L210,206l-3.913,10.077l6.083,8.936L201.377,224.406z M252.581,157.721
				l-0.866,6.24l-4.426-4.483l-6.202,1.105l2.896-5.595l-2.967-5.557l6.216,1.025l4.368-4.539l0.946,6.228l5.667,2.752
				L252.581,157.721z M276.022,253.912l-5.022-2.64l-5.022,2.64l0.959-5.592l-4.063-3.96l5.615-0.816l2.511-5.088l2.511,5.088
				l5.615,0.816l-4.063,3.96L276.022,253.912z M345.629,89.618L343,88.236l-2.629,1.382l0.502-2.927l-2.127-2.073l2.939-0.427
				L343,81.528l1.314,2.663l2.939,0.427l-2.127,2.073L345.629,89.618z M423.65,228.153l-6.65-3.496l-6.65,3.496l1.27-7.405
				l-5.38-5.244l7.435-1.08l3.325-6.737l3.325,6.737l7.435,1.08l-5.38,5.244L423.65,228.153z"/>
			<path style="fill:#C6FF00;" d="M406.578,356.24c1.148-0.603,2.309-1.24,3.487-1.926c8.957-5.211,15.637-14.588,20.612-26.094
				v-53.548h-24.099V356.24z"/>
		</g>
		<g style="opacity:0.7;">
			<path style="fill:#FFFFFF;" d="M183.688,389.991c2.347,0.03,4.735,0.023,7.173-0.028c6.076-0.127,11.694-0.517,16.926-1.117
				V274.672h-24.099V389.991z"/>
			<path style="fill:#FFFFFF;" d="M228.266,385.01c9.417-2.536,17.247-5.828,24.099-9.383V274.672h-24.099V385.01z"/>
			<path style="fill:#FFFFFF;" d="M272.844,363.223c7.992-5.17,15.375-9.675,24.099-11.927v-76.623h-24.099V363.223z"/>
			<path style="fill:#FFFFFF;" d="M317.422,350.23c8.616,0.962,16.477,3.286,24.099,5.76v-81.318h-24.099V350.23z"/>
			<path style="fill:#FFFFFF;" d="M69.501,311.08c1.404,3.828,2.917,7.578,4.551,11.241v-47.648H61.324
				C62.633,287.437,65.402,299.9,69.501,311.08z"/>
			<path style="fill:#FFFFFF;" d="M94.532,354.794c6.77,7.572,14.712,14.19,24.099,19.583v-99.705H94.532V354.794z"/>
			<path style="fill:#FFFFFF;" d="M139.11,383.348c7.337,2.357,15.346,4.132,24.099,5.255V274.672H139.11V383.348z"/>
			<path style="fill:#FFFFFF;" d="M362,362.165c7.628,1.751,15.488,2.543,24.099,1.164v-88.657H362V362.165z"/>
			<path style="fill:#FFFFFF;" d="M420.519,140.632c-6.471-12.871-14.625-26.002-24.865-38.138
				C354.695,53.95,272.019,69.12,240.163,94.15c-31.857,25.03-33.374,59.921-60.68,69.023c-27.306,9.102-48.544-8.343-84.951,13.653
				c-24.643,14.889-35.035,50.28-34.005,85.71h383.366c0.188-2.883,0.343-5.712,0.461-8.452
				C446.045,214.862,438.154,175.708,420.519,140.632z M96.591,214.319L92,211.905l-4.591,2.413l0.877-5.112l-3.714-3.62
				l5.133-0.746L92,200.19l2.295,4.651l5.133,0.746l-3.714,3.62L96.591,214.319z M201.377,224.406l-6.619,8.547L192,222.5
				l-10.174-3.654l9.089-5.853l0.331-10.805l8.375,6.836L210,206l-3.913,10.077l6.083,8.936L201.377,224.406z M252.581,157.721
				l-0.866,6.24l-4.426-4.483l-6.202,1.105l2.896-5.595l-2.967-5.557l6.216,1.025l4.368-4.539l0.946,6.228l5.667,2.752
				L252.581,157.721z M276.022,253.912l-5.022-2.64l-5.022,2.64l0.959-5.592l-4.063-3.96l5.615-0.816l2.511-5.088l2.511,5.088
				l5.615,0.816l-4.063,3.96L276.022,253.912z M345.629,89.618L343,88.236l-2.629,1.382l0.502-2.927l-2.127-2.073l2.939-0.427
				L343,81.528l1.314,2.663l2.939,0.427l-2.127,2.073L345.629,89.618z M423.65,228.153l-6.65-3.496l-6.65,3.496l1.27-7.405
				l-5.38-5.244l7.435-1.08l3.325-6.737l3.325,6.737l7.435,1.08l-5.38,5.244L423.65,228.153z"/>
			<path style="fill:#FFFFFF;" d="M406.578,356.24c1.148-0.603,2.309-1.24,3.487-1.926c8.957-5.211,15.637-14.588,20.612-26.094
				v-53.548h-24.099V356.24z"/>
		</g>
	</g>
</g>
<g id="Shadow">
	<g>
		<ellipse style="fill:#C6FF00;" cx="335.354" cy="420.303" rx="54.991" ry="8.343"/>
		<ellipse style="opacity:0.5;fill:#FFFFFF;" cx="335.354" cy="420.303" rx="54.991" ry="8.343"/>
	</g>
	<g>
		<ellipse style="fill:#C6FF00;" cx="167.726" cy="408.167" rx="41.338" ry="8.343"/>
		<ellipse style="opacity:0.5;fill:#FFFFFF;" cx="167.726" cy="408.167" rx="41.338" ry="8.343"/>
	</g>
</g>
<g id="Plants">
	<g>
		<g>
			<path style="fill:#263238;" d="M147.631,386.513l21.053-8.767c-1.477-2.407-2.942-1.265-4.823-5.164
				c-0.947-1.963-0.123-5.225-1.383-7.798c-1.038-2.119-4.11-3.456-5.313-5.874c-1.085-2.182-0.293-5.435-1.478-7.781
				c-1.12-2.217-4.207-3.507-5.39-5.804c-1.154-2.241-0.41-5.504-1.597-7.76c-1.188-2.258-4.297-3.49-5.494-5.704
				c-1.23-2.276-0.562-5.556-1.774-7.72c-1.287-2.297-4.433-3.433-5.667-5.528c-1.375-2.333-0.863-5.65-2.131-7.631
				c-1.553-2.427-4.78-3.307-6.098-5.025c-2.455-3.202-3.781-6.722-5.003-6.478c-1.305,0.261-0.163,3.776,0.507,7.959
				c0.337,2.101-1.242,5.029-0.542,7.813c0.566,2.254,3.326,4.133,4.077,6.714c0.672,2.311-0.663,5.359,0.12,7.849
				c0.737,2.343,3.576,4.082,4.382,6.517c0.783,2.366-0.459,5.452,0.362,7.845c0.82,2.387,3.697,4.061,4.528,6.415
				c0.852,2.412-0.335,5.521,0.502,7.836c0.885,2.448,3.787,4.081,4.622,6.346c0.925,2.51-0.219,5.639,0.602,7.828
				c0.997,2.657,3.926,4.273,4.697,6.291c1.673,4.381-0.681,4.309,0.698,7.821L147.631,386.513z"/>
			
				<line style="fill:none;stroke:#FFFFFF;stroke-width:0.3608;stroke-miterlimit:10;" x1="124.955" y1="306.592" x2="156.264" y2="381.778"/>
			<polyline style="fill:none;stroke:#FFFFFF;stroke-width:0.3608;stroke-miterlimit:10;" points="131.525,313.105 129.33,317.492 
				124.968,314.921 			"/>
			<polyline style="fill:none;stroke:#FFFFFF;stroke-width:0.3608;stroke-miterlimit:10;" points="136.974,326.192 134.779,330.579 
				130.418,328.008 			"/>
			<polyline style="fill:none;stroke:#FFFFFF;stroke-width:0.3608;stroke-miterlimit:10;" points="142.1,338.5 139.905,342.887 
				135.543,340.316 			"/>
			<polyline style="fill:none;stroke:#FFFFFF;stroke-width:0.3608;stroke-miterlimit:10;" points="148.198,353.144 146.003,357.532 
				141.642,354.96 			"/>
			<polyline style="fill:none;stroke:#FFFFFF;stroke-width:0.3608;stroke-miterlimit:10;" points="154.361,367.945 152.166,372.332 
				147.805,369.761 			"/>
		</g>
		<g>
			<path style="fill:#263238;" d="M145.255,380.702l34.339-1.095c-0.794-4.18-3.467-3.355-4.033-9.851
				c-0.285-3.272,2.619-7.425,2.22-11.723c-0.329-3.54-3.942-7.065-4.343-11.113c-0.362-3.654,2.493-7.812,2.078-11.749
				c-0.393-3.722-4.052-7.188-4.489-11.055c-0.427-3.773,2.365-7.971,1.899-11.783c-0.466-3.816-4.187-7.213-4.689-10.971
				c-0.516-3.863,2.178-8.126,1.628-11.822c-0.585-3.923-4.408-7.205-5.028-10.816c-0.69-4.021,1.804-8.42,1.077-11.887
				c-0.891-4.249-4.966-7.213-5.902-10.337c-1.746-5.823-1.732-11.489-3.584-11.799c-1.978-0.33-2.249,5.232-3.541,11.481
				c-0.649,3.139-4.437,6.42-4.94,10.715c-0.407,3.478,2.476,7.6,2.154,11.637c-0.289,3.615-3.799,7.193-4.027,11.12
				c-0.214,3.693,2.854,7.661,2.688,11.521c-0.162,3.751-3.561,7.434-3.683,11.243c-0.122,3.801,3.036,7.696,2.949,11.456
				c-0.089,3.853-3.423,7.597-3.482,11.305c-0.062,3.921,3.153,7.772,3.118,11.409c-0.038,4.029-3.323,7.826-3.336,11.348
				c-0.016,4.275,3.246,8.118,3.253,11.371c0.015,7.065-3.262,5.706-3.198,11.389L145.255,380.702z"/>
			
				<line style="fill:none;stroke:#FFFFFF;stroke-width:0.5436;stroke-miterlimit:10;" x1="156.036" y1="256.011" x2="159.945" y2="378.647"/>
			<polyline style="fill:none;stroke:#FFFFFF;stroke-width:0.5436;stroke-miterlimit:10;" points="161.808,268.696 156.372,273.703 
				151.603,267.75 			"/>
			<polyline style="fill:none;stroke:#FFFFFF;stroke-width:0.5436;stroke-miterlimit:10;" points="162.489,290.042 157.052,295.048 
				152.283,289.095 			"/>
			<polyline style="fill:none;stroke:#FFFFFF;stroke-width:0.5436;stroke-miterlimit:10;" points="163.129,310.117 157.692,315.124 
				152.923,309.171 			"/>
			<polyline style="fill:none;stroke:#FFFFFF;stroke-width:0.5436;stroke-miterlimit:10;" points="163.89,334.004 158.453,339.011 
				153.685,333.058 			"/>
			<polyline style="fill:none;stroke:#FFFFFF;stroke-width:0.5436;stroke-miterlimit:10;" points="164.659,358.145 159.223,363.152 
				154.454,357.199 			"/>
		</g>
		<g>
			<path style="fill:#263238;" d="M165.926,303.556c1.766,1.217,6.507,2.026,6.51,2.027c0.049,0.008-0.415-3.286-0.468-3.491
				c-0.616-2.367-3.197-6.579-5.931-6.736c-1.97-0.113-3.41,1.602-3.327,3.493C162.794,300.781,164.422,302.519,165.926,303.556z"/>
			<path style="fill:#263238;" d="M213.463,313.853c0.036,0.034,1.467-2.97,1.535-3.17c0.792-2.314,0.963-7.251-1.231-8.89
				c-1.581-1.181-3.727-0.546-4.702,1.077c-0.995,1.658-0.596,4.006,0.086,5.701C209.953,310.56,213.46,313.85,213.463,313.853z"/>
			<path style="fill:#263238;" d="M230.867,299.482c-2.618-0.806-6.505,2.241-7.907,4.245c-0.121,0.173-1.705,3.099-1.656,3.109
				c0,0,0.046,0.008,0.057,0.01c-0.617,0.476-1.274,0.994-1.98,1.574c-1.295,1.082-2.748,2.316-4.239,3.766
				c-1.494,1.445-3.076,3.057-4.589,4.906c-1.52,1.851-3.023,3.875-4.303,6.161c-0.014,0.026-0.026,0.055-0.041,0.081
				c0.166-0.785,0.559-2.995,0.57-3.168c0.153-2.441-0.985-7.248-3.535-8.25c-1.837-0.721-3.739,0.458-4.25,2.281
				c-0.522,1.862,0.483,4.021,1.588,5.475c1.247,1.64,5.181,3.757,5.495,3.924c-1.199,2.189-2.251,4.532-3.186,6.962
				c-0.536,1.389-1.032,2.804-1.512,4.229c0.122-0.683,0.226-1.295,0.232-1.382c0.153-2.441-0.986-7.248-3.535-8.249
				c-1.837-0.722-3.739,0.458-4.25,2.281c-0.522,1.862,0.482,4.021,1.588,5.476c1.122,1.475,4.44,3.348,5.324,3.831
				c-0.178,0.549-0.362,1.095-0.538,1.644c-0.846,2.636-1.678,5.27-2.574,7.829c-0.315,0.902-0.659,1.778-1,2.657
				c0.108-0.607,0.194-1.119,0.199-1.199c0.153-2.441-0.985-7.248-3.535-8.249c-1.837-0.722-3.739,0.458-4.251,2.281
				c-0.522,1.861,0.483,4.021,1.589,5.475c1.071,1.408,4.118,3.164,5.166,3.743c-0.376,0.889-0.751,1.78-1.155,2.624
				c-0.289,0.57-0.528,1.139-0.85,1.696c-0.308,0.558-0.612,1.11-0.913,1.657c-0.619,1.032-1.252,2.101-1.882,3.092
				c-0.432,0.693-0.857,1.345-1.284,2.003c0.325-0.894,0.922-2.658,0.956-2.81c0.346-1.588,0.283-4.291-0.491-6.332
				c0.053-0.234,0.085-0.472,0.092-0.712c0.061-1.892-1.399-3.589-3.368-3.454c-2.732,0.188-5.265,4.429-5.853,6.803
				c-0.035,0.14-0.241,1.702-0.356,2.689c-0.021-0.591-0.035-1.164-0.064-1.772c-0.049-1.202-0.134-2.4-0.221-3.69
				c-0.064-0.621-0.128-1.249-0.193-1.882c-0.051-0.63-0.185-1.289-0.275-1.94c-0.242-1.505-0.559-3.018-0.913-4.535
				c1.053-0.046,4.788-0.263,6.43-1.083c1.634-0.816,3.49-2.309,3.844-4.21c0.347-1.861-0.838-3.76-2.805-3.924
				c-2.729-0.228-5.875,3.58-6.816,5.838c-0.059,0.141-0.552,1.836-0.805,2.773c-0.22-0.911-0.435-1.82-0.687-2.734
				c-0.728-2.638-1.547-5.285-2.353-7.93c-0.247-0.81-0.483-1.62-0.724-2.43c0.375-0.012,4.82-0.174,6.659-1.092
				c1.634-0.816,3.49-2.309,3.845-4.21c0.347-1.861-0.838-3.76-2.805-3.924c-2.73-0.228-5.875,3.581-6.817,5.838
				c-0.071,0.17-0.777,2.611-0.926,3.241c-0.527-1.784-1.037-3.567-1.467-5.345c-0.598-2.452-1.048-4.892-1.31-7.287
				c0.174-0.005,4.815-0.153,6.699-1.093c1.635-0.815,3.49-2.309,3.844-4.21c0.347-1.861-0.838-3.76-2.805-3.924
				c-2.73-0.228-5.875,3.581-6.816,5.838c-0.062,0.148-0.602,2.009-0.838,2.899c-0.086-0.007-0.07-0.006-0.156-0.013
				c-0.25-2.57-0.168-5.091,0.025-7.446c0.109-1.364,0.29-2.663,0.494-3.922c0.867,0.061,4.833,0.296,6.621-0.362
				c1.714-0.631,3.722-1.912,4.284-3.762c0.549-1.812-0.421-3.83-2.357-4.209c-2.688-0.527-6.233,2.914-7.416,5.054
				c-0.064,0.116-0.588,1.372-0.956,2.292c0.101-0.567,0.195-1.154,0.302-1.695c0.398-2.033,0.888-3.869,1.335-5.493
				c0.262-0.921,0.516-1.749,0.763-2.52c0.882-0.384,4.418-1.976,5.679-3.36c1.23-1.35,2.423-3.412,2.068-5.313
				c-0.347-1.861-2.138-3.205-4.031-2.649c-2.628,0.772-4.189,5.458-4.253,7.903c-0.005,0.211,0.288,3.526,0.334,3.506
				c0,0,0.043-0.019,0.053-0.023c-0.252,0.738-0.514,1.532-0.782,2.405c-0.483,1.617-1.014,3.448-1.458,5.48
				c-0.449,2.029-0.879,4.247-1.122,6.623c-0.246,2.382-0.384,4.9-0.19,7.513c0.002,0.03,0.008,0.06,0.011,0.09
				c-0.294-0.746-1.186-2.806-1.273-2.957c-1.219-2.12-4.82-5.501-7.499-4.931c-1.93,0.412-2.866,2.445-2.287,4.247
				c0.592,1.841,2.621,3.088,4.345,3.691c1.945,0.68,6.394,0.275,6.748,0.242c0.208,2.487,0.622,5.022,1.184,7.564
				c0.319,1.454,0.686,2.908,1.072,4.362c-0.275-0.637-0.526-1.205-0.569-1.281c-1.219-2.121-4.821-5.501-7.499-4.93
				c-1.93,0.411-2.866,2.445-2.287,4.247c0.591,1.841,2.621,3.088,4.345,3.691c1.75,0.611,5.55,0.343,6.554,0.258
				c0.154,0.556,0.301,1.113,0.458,1.668c0.749,2.665,1.508,5.322,2.172,7.95c0.235,0.926,0.432,1.847,0.632,2.767
				c-0.245-0.566-0.456-1.04-0.496-1.109c-1.219-2.12-4.82-5.501-7.499-4.93c-1.93,0.411-2.866,2.445-2.287,4.247
				c0.592,1.841,2.621,3.088,4.346,3.69c1.67,0.584,5.179,0.367,6.374,0.272c0.177,0.949,0.356,1.899,0.484,2.826
				c0.073,0.635,0.188,1.242,0.226,1.884c0.051,0.635,0.102,1.263,0.152,1.886c0.053,1.202,0.115,2.443,0.136,3.617
				c0.022,0.816,0.027,1.595,0.035,2.379c-0.222-0.925-0.697-2.725-0.753-2.871c-0.883-2.281-3.931-6.168-6.666-6.009
				c-1.97,0.115-3.204,1.982-2.904,3.852c0.306,1.909,2.123,3.449,3.736,4.306c1.776,0.943,6.059,1.227,6.594,1.259
				c0.008,1.298,0.004,2.56-0.019,3.751c-0.064,3.736-0.246,6.897-0.417,9.244l1.809,0.351c0.125-2.399,0.249-5.68,0.23-9.584
				c-0.003-1.318-0.032-2.726-0.077-4.172c0.339-0.064,2.261-0.439,4.012-1.016c1.087,1.757,4.275,4.185,4.689,4.496
				c-0.709,1.087-1.409,2.137-2.085,3.118c-2.092,3.049-3.971,5.565-5.402,7.422l1.979,0.384c1.328-1.823,2.969-4.15,4.771-6.901
				c0.725-1.101,1.477-2.292,2.237-3.522c0.485,0.204,4.461,1.847,6.474,1.786c1.826-0.056,4.136-0.635,5.255-2.212
				c1.095-1.545,0.814-3.766-0.903-4.738c-2.383-1.351-6.835,0.79-8.635,2.445c-0.106,0.098-1.14,1.286-1.78,2.047
				c0.308-0.504,0.613-0.99,0.924-1.513c0.622-1.03,1.212-2.076,1.851-3.199c0.29-0.553,0.582-1.112,0.877-1.676
				c0.305-0.553,0.557-1.177,0.84-1.769c0.629-1.388,1.199-2.826,1.74-4.286c0.903,0.542,4.138,2.422,5.96,2.644
				c1.813,0.221,4.185-0.001,5.529-1.39c1.316-1.361,1.375-3.599-0.174-4.821c-2.151-1.696-6.876-0.255-8.906,1.109
				c-0.127,0.085-1.473,1.227-2.201,1.869c0.319-0.881,0.642-1.758,0.935-2.659c0.848-2.602,1.626-5.262,2.413-7.912
				c0.241-0.812,0.49-1.618,0.737-2.426c0.319,0.197,4.116,2.514,6.157,2.763c1.813,0.221,4.185-0.001,5.529-1.39
				c1.316-1.361,1.375-3.599-0.175-4.821c-2.151-1.696-6.876-0.255-8.906,1.109c-0.153,0.103-2.089,1.749-2.56,2.192
				c0.544-1.779,1.103-3.547,1.725-5.267c0.855-2.375,1.824-4.658,2.927-6.8c0.149,0.092,4.101,2.528,6.19,2.783
				c1.813,0.221,4.185-0.001,5.529-1.391c1.316-1.361,1.375-3.599-0.175-4.82c-2.151-1.696-6.875-0.255-8.906,1.109
				c-0.133,0.089-1.609,1.342-2.297,1.954c-0.068-0.053-0.055-0.044-0.123-0.097c1.209-2.281,2.668-4.338,4.128-6.196
				c0.844-1.078,1.71-2.061,2.575-2.999c0.689,0.529,3.867,2.913,5.723,3.35c1.778,0.419,4.16,0.459,5.648-0.774
				c1.458-1.208,1.762-3.426,0.356-4.811c-1.951-1.922-6.806-1.008-8.974,0.124c-0.118,0.062-1.247,0.82-2.062,1.384
				c0.397-0.417,0.799-0.855,1.186-1.247c1.453-1.476,2.875-2.737,4.143-3.845c0.726-0.624,1.395-1.174,2.027-1.681
				c0.948,0.166,4.775,0.789,6.59,0.331c1.771-0.448,3.903-1.51,4.656-3.29C233.505,302.171,232.753,300.063,230.867,299.482z"/>
		</g>
		<rect x="131.696" y="372.042" style="fill:#263238;" width="74.427" height="9.852"/>
		<polygon style="fill:#263238;" points="194.433,410.212 143.387,410.212 137.006,380.803 200.813,380.803 		"/>
	</g>
</g>
<g id="Ribbon">
	<g>
		<g>
			<path style="fill:#C6FF00;stroke:#263238;stroke-miterlimit:10;" d="M132.33,222.99l-0.755,70.94c0,0-3.019,1.509-11.32,1.509
				c-8.301,0-11.32-1.509-11.32-1.509l3.019-28.678c0,0-10.565-2.264-10.565-5.283s23.395-86.033,23.395-86.033
				S136.858,195.067,132.33,222.99z"/>
			<line style="fill:none;stroke:#263238;stroke-miterlimit:10;" x1="111.954" y1="265.252" x2="121.735" y2="220.046"/>
			<path style="fill:#263238;stroke:#263238;stroke-miterlimit:10;" d="M115.727,173.936c0,0,13.584,18.112,15.094,25.659
				c1.509,7.547,1.509,23.395,1.509,23.395s6.792-15.848,8.301-34.715c1.509-18.867-13.584-28.678-13.584-28.678L115.727,173.936z"
				/>
			<path style="fill:#C6FF00;stroke:#263238;stroke-miterlimit:10;" d="M370.915,222.99l0.755,70.94c0,0,3.019,1.509,11.32,1.509
				c8.301,0,11.32-1.509,11.32-1.509l-3.019-28.678c0,0,10.566-2.264,10.566-5.283s-23.395-86.033-23.395-86.033
				S366.387,195.067,370.915,222.99z"/>
			<line style="fill:none;stroke:#263238;stroke-miterlimit:10;" x1="391.291" y1="265.252" x2="382.22" y2="212.688"/>
			<path style="fill:#263238;stroke:#263238;stroke-miterlimit:10;" d="M387.518,173.936c0,0-13.584,18.112-15.094,25.659
				c-1.509,7.547-1.509,23.395-1.509,23.395s-6.792-15.848-8.302-34.715c-1.509-18.867,13.584-28.678,13.584-28.678L387.518,173.936
				z"/>
			<g>
				<path style="fill:#C6FF00;" d="M387.412,173.936c-83.784-49.55-187.901-49.55-271.685,0
					c-7.939-13.425-15.879-26.85-23.818-40.274c-1.71-2.861-0.095-6.972,3.653-9.066c96.92-54.2,215.093-54.2,312.014,0
					c3.748,2.094,5.363,6.205,3.654,9.066C403.291,147.087,395.351,160.512,387.412,173.936z"/>
				<path style="fill:none;stroke:#263238;stroke-miterlimit:10;" d="M387.412,173.936c-83.784-49.55-187.901-49.55-271.685,0
					c-7.939-13.425-15.879-26.85-23.818-40.274c-1.71-2.861-0.095-6.972,3.653-9.066c96.92-54.2,215.093-54.2,312.014,0
					c3.748,2.094,5.363,6.205,3.654,9.066C403.291,147.087,395.351,160.512,387.412,173.936z"/>
			</g>
		</g>
		<path id="SVGID_x5F_1_x5F_" style="fill:none;" d="M121.765,155.824c0,0,73.843-36.259,150.936-30.942
			c65.657,4.528,107.164,31.697,107.164,31.697"/>
		<text>		<textPath  xlink:href="#SVGID_x5F_1_x5F_" startOffset="14.026%">
<tspan  style="fill:#263238; font-family:'Nunito-Black'; font-size:43.8246px;">WELCOME</tspan>		</textPath>
</text>
	</g>
</g>
<g id="Character">
	<g>
		<path style="fill:#FFFFFF;stroke:#263238;stroke-linecap:round;stroke-linejoin:round;stroke-miterlimit:10;" d="M338.176,220.596
			c0,0-12.717-9.396-18.825-14.05c-6.108-4.654-16.579-17.742-19.196-23.559c-2.618-5.817-4.363-8.725-4.363-8.725
			s1.163-5.817,1.163-7.272c-0.001-1.479-1.169-3.341-1.906-4.555c-0.373-0.615-3.031-4.107-3.031-1.446
			c0,2.083,1.25,3.125,1.25,4.375c0,1.25,0,0,0,0s-2.5-1.25-3.959-3.959c-1.458-2.709-2.084-3.75-2.917-3.125
			c-1.491,1.118,0.417,3.959,0.417,3.959s-0.417-3.959-2.5-3.334c-1.197,0.359,0.417,3.75,1.25,5.209
			c0.833,1.459-0.417-1.042-0.208,1.459c0.153,1.832,2.236,6.327,4.167,8.542c0.705,0.808,2.333,0.555,2.5,0.833
			c0.625,1.042,7.292,16.46,11.876,24.169c4.584,7.709,7.292,10.001,11.043,13.752c3.75,3.75,8.751,10.209,13.126,13.335
			c4.375,3.125,6.667,1.875,9.168-0.208C339.731,223.911,340.132,222.722,338.176,220.596z"/>
		<path style="fill:none;stroke:#263238;stroke-linecap:round;stroke-linejoin:round;stroke-miterlimit:10;" d="M293.268,165.364
			c0,0-1.875,3.542-1.042,5.001"/>
		
			<line style="fill:none;stroke:#263238;stroke-linecap:round;stroke-linejoin:round;stroke-miterlimit:10;" x1="286.809" y1="162.238" x2="288.476" y2="165.364"/>
		<path style="fill:#FFFFFF;stroke:#263238;stroke-linecap:round;stroke-linejoin:round;stroke-miterlimit:10;" d="M288.684,172.448
			c0,0-2.917-3.75-3.75-5.834c-0.833-2.084-0.208-6.667,1.042-5.834s0.833,5.417,0.833,5.417l2.5,2.917"/>
		<g>
			<path style="fill:#263238;stroke:#263238;stroke-linecap:round;stroke-linejoin:round;stroke-miterlimit:10;" d="
				M340.874,194.621c0,0-6.399-2.327-5.235-10.471c1.163-8.144,8.144-4.072,8.144-4.072s-6.98-9.307,7.271-11.343
				c14.252-2.036,24.722,10.761,28.213,25.013c3.49,14.252-18.615,15.706-15.415,26.467c3.199,10.762,15.706,22.977,13.67,37.811
				c-2.036,14.833-22.396,22.977-31.703,15.124c-9.307-7.853-13.088-20.069-7.853-31.121c5.235-11.052,8.144-24.141,9.598-29.958
				C349.018,206.255,340.874,194.621,340.874,194.621z"/>
			<path style="fill:none;stroke:#FFFFFF;stroke-width:0.75;stroke-linecap:round;stroke-linejoin:round;stroke-miterlimit:10;" d="
				M363.75,205.5c-8.75-3.5-13.25-17.75-13.25-25.75s11.25-4,11.25-4s-11,2-5.5,12.75s15.25,14,20.25,10.75"/>
			<path style="fill:none;stroke:#FFFFFF;stroke-width:0.75;stroke-linecap:round;stroke-linejoin:round;stroke-miterlimit:10;" d="
				M362,213.25c0,0-7.75,2.5-5.5,12.25s19.5,22,14.5,34.5s-13.75,17.5-24.25,13.75"/>
			<path style="fill:none;stroke:#FFFFFF;stroke-width:0.75;stroke-linecap:round;stroke-linejoin:round;stroke-miterlimit:10;" d="
				M358.25,215.25c0,0-8.5,3.5-9.5,16s9.25,23.25,4.5,29.5s-12.5,5.5-15,1.75"/>
		</g>
		<path style="fill:#FFFFFF;stroke:#263238;stroke-linecap:round;stroke-linejoin:round;stroke-miterlimit:10;" d="M338.838,208.291
			c0,0,0.873,3.199-2.036,8.144c-2.909,4.944-4.363,6.108-4.363,6.108l10.471-0.872l6.69-12.216
			C349.599,209.455,339.42,210.327,338.838,208.291z"/>
		<g>
			<path style="fill:#FFFFFF;stroke:#263238;stroke-linecap:round;stroke-linejoin:round;stroke-miterlimit:10;" d="
				M349.309,181.242c0,0-10.18,9.307-12.216,17.451c-2.036,8.144,0.582,13.379,4.363,13.379s11.634-3.199,11.634-3.199
				s2.327,2.036,4.654,0.873c2.327-1.163,2.327-3.49,2.327-3.49S344.073,190.549,349.309,181.242z"/>
			<path style="fill:#263238;" d="M344.995,195.209c-0.694,0.892-1.539,1.395-1.885,1.125c-0.347-0.27-0.065-1.212,0.63-2.104
				c0.695-0.892,1.539-1.395,1.885-1.125C345.971,193.376,345.69,194.318,344.995,195.209z"/>
			<path style="fill:#263238;" d="M349.84,200.285c-0.694,0.892-1.539,1.395-1.885,1.125c-0.347-0.27-0.065-1.212,0.63-2.104
				c0.694-0.892,1.539-1.396,1.885-1.125C350.816,198.451,350.534,199.393,349.84,200.285z"/>
			<path style="fill:none;stroke:#263238;stroke-width:0.75;stroke-linecap:round;stroke-linejoin:round;stroke-miterlimit:10;" d="
				M344.54,197.115c0,0-2.501,0.91-3.411,1.592c-0.909,0.682,0.682,1.592,0.682,1.592"/>
			<path style="fill:none;stroke:#263238;stroke-width:0.75;stroke-linecap:round;stroke-linejoin:round;stroke-miterlimit:10;" d="
				M339.083,202.572c0,0,0.455,2.501,3.183,2.729c2.729,0.227,4.093-0.91,4.093-0.91"/>
			<path style="fill:none;stroke:#263238;stroke-width:0.75;stroke-linecap:round;stroke-linejoin:round;stroke-miterlimit:10;" d="
				M344.768,189.384c0,0,2.501-0.455,3.183,2.274"/>
			<path style="fill:none;stroke:#263238;stroke-width:0.75;stroke-linecap:round;stroke-linejoin:round;stroke-miterlimit:10;" d="
				M349.997,195.068c0,0,3.865,1.364,2.729,4.32"/>
		</g>
		<path style="fill:#C6FF00;stroke:#263238;stroke-linecap:round;stroke-linejoin:round;stroke-miterlimit:10;" d="M311.837,407.188
			c0,0-5.38,3.587-7.174,4.484c-1.793,0.897-9.416,2.242-9.64,4.259c-0.224,2.018,3.811,3.139,8.295,3.139
			c4.484,0,9.864,0,12.554,0.448c2.69,0.448,4.484,1.345,5.605-1.569c1.121-2.914-0.673-10.537-0.673-10.537
			S316.096,409.206,311.837,407.188z"/>
		<path style="fill:#263238;stroke:#263238;stroke-linecap:round;stroke-linejoin:round;stroke-miterlimit:10;" d="M313.854,327.379
			c0,0-3.139,14.572-3.139,19.28c0,4.708,1.793,35.197,2.242,43.716c0.448,8.519-1.121,16.814-1.121,16.814s3.811,1.793,5.38,1.793
			c1.569,0,3.587-1.569,3.587-1.569s4.484-19.728,4.484-30.265c0-10.537,0.897-16.59,0-23.315
			c-0.897-6.726-4.035-19.056-2.914-23.539S317.217,320.653,313.854,327.379z"/>
		<path style="fill:#263238;stroke:#263238;stroke-linecap:round;stroke-linejoin:round;stroke-miterlimit:10;" d="M313.825,262.971
			c0,0-3.781,25.886-3.781,45.082c0,19.196,8.144,42.173,10.18,45.373c2.036,3.199,19.778,35.193,23.85,41.883
			c4.072,6.69,7.116,15.939,7.116,15.939s2.909,0.872,4.363,0.872c1.454,0,3.49-1.745,3.49-1.745s-9.443-36.88-13.224-46.479
			c-3.781-9.598-11.634-17.16-13.67-20.941c-2.036-3.781-2.908-18.324-2.908-18.324s11.925-18.905,13.961-29.085
			c2.036-10.18-3.49-21.523-5.817-25.595c-2.327-4.072-4.072-8.435-4.072-8.435S321.096,268.788,313.825,262.971z"/>
		<path style="fill:#C6FF00;stroke:#263238;stroke-linecap:round;stroke-linejoin:round;stroke-miterlimit:10;" d="M335.93,252.501
			c0,0,7.271-22.396,9.016-27.631c1.745-5.235-0.872-7.271-8.725-6.399s-21.523,6.98-22.105,13.67
			c-0.582,6.69,2.036,10.471,2.036,13.67c0,3.199-4.654,17.16-1.163,20.069c3.49,2.908,14.543,2.036,17.742-2.036
			C335.93,259.772,335.93,252.501,335.93,252.501z"/>
		<path style="fill:#FFFFFF;stroke:#263238;stroke-linecap:round;stroke-linejoin:round;stroke-miterlimit:10;" d="M338.176,220.596
			c0,0,0.953,4.855-2.538,10.381c-3.49,5.526-11.343,3.49-10.762-2.618C325.459,222.252,332.861,217.195,338.176,220.596z"/>
		<path style="fill:#FFFFFF;stroke:#263238;stroke-linecap:round;stroke-linejoin:round;stroke-miterlimit:10;" d="M333.221,229.259
			c3.986-0.728,6.533-4.931,4.956-8.663c-0.513-1.214-1.386-2.162-2.829-2.416c-4.944-0.873-26.758,0.873-32.284,0.291
			c-5.526-0.582-26.467-13.379-31.994-18.324c-5.526-4.945-7.562-7.562-7.562-9.598c0-2.036-1.454-6.69-2.618-8.144
			c-1.163-1.454-3.199-4.363-3.199-4.363s-2.036,0-1.745,1.163c0.291,1.163,1.745,3.781,1.745,3.781s-5.817-3.49-7.271-4.944
			c-1.454-1.454-2.618-0.291-2.618-0.291l3.199,3.49c0,0-0.291,2.327,2.036,6.108c2.327,3.781,6.399,6.69,6.399,6.69
			s11.634,13.67,20.36,21.232c8.725,7.562,16.869,12.216,24.141,13.379C310.346,229.677,320.374,231.606,333.221,229.259z"/>
		<path style="fill:#C6FF00;stroke:#263238;stroke-linecap:round;stroke-linejoin:round;stroke-miterlimit:10;" d="M351.19,411.248
			c0,0-4.604,4.908-7.743,6.926c-3.139,2.018-7.174,3.363-6.501,5.156c0.673,1.794,8.967,1.569,13.003,1.345
			c4.035-0.224,12.106-4.035,13.451-4.932c1.345-0.897-4.356-9.367-4.356-9.367S354.673,412.841,351.19,411.248z"/>
		<path style="fill:#263238;stroke:#263238;stroke-linecap:round;stroke-linejoin:round;stroke-miterlimit:10;" d="M349.948,424.675
			c4.035-0.224,12.106-4.035,13.451-4.932c0.373-0.249,0.194-1.089-0.245-2.16c-3.03,1.49-8.306,3.784-14.327,5.074
			c-6.557,1.405-10.282,0.745-11.942,0.214c-0.009,0.15,0.002,0.302,0.06,0.458C337.618,425.123,345.913,424.899,349.948,424.675z"
			/>
		<path style="fill:#263238;stroke:#263238;stroke-linecap:round;stroke-linejoin:round;stroke-miterlimit:10;" d="M321.477,417.949
			c0.191-0.496,0.292-1.135,0.337-1.843c-1.779,1.443-3.072,0.767-5.942,0.946c-3.587,0.224-4.932,0.224-12.33,0.224
			c-4.051,0-6.817-0.739-8.498-1.408c-0.004,0.021-0.019,0.042-0.021,0.063c-0.224,2.018,3.811,3.139,8.295,3.139
			c4.484,0,9.864,0,12.554,0.448C318.562,419.967,320.356,420.864,321.477,417.949z"/>
		<path style="fill:none;stroke:#FFFFFF;stroke-width:0.75;stroke-linecap:round;stroke-linejoin:round;stroke-miterlimit:10;" d="
			M329.24,324.632c0,0,0.833-13.84,2.355-16.579c1.522-2.739,5.174-6.391,7.608-8.521"/>
	</g>
</g>
</svg>
