<?xml version="1.0" encoding="UTF-8"?>
<svg version="1.1" viewBox="0 0 2000 2000" width="500" height="500" xmlns="http://www.w3.org/2000/svg">
<path transform="translate(1399,200)" d="m0 0h48l36 4 31 6 31 9 26 10 26 12 22 12 24 16 16 12 13 11 11 9 25 25 9 11 10 12 13 18 12 19 10 18 8 16 10 22 12 36 6 24 5 29 2 28v49l-2 28-5 28-7 28-10 29-9 21-10 21-14 24-15 22-10 13-12 14-15 16-11 11-8 7-11 10-16 12-20 14-24 14-16 8-19 9-24 9-27 8-21 5-25 4-36 3h-398l-1-37 1-373 4-34 8-37 9-29 11-28 9-19 13-23 12-19 9-12 10-13 9-11 13-13 7-8 16-15 10-9 12-9 18-13 21-13 26-14 25-11 19-7 28-8 28-6 30-4zm182 72-9 16-20 32-15 10-18 10-16 8-19 9-5 6-1 2v7l4 6 8 8 8 7 11 10 8 7 6 5-3 5-9 10-9 11-24 28-11 13-9 10-9 11-24 28-7 8-9 10-11 14-12 13-11 14-13 14-11 14-12 13-9 11-24 28-9 10-13 11-14 11-16 13-15 11 6 7 20 18 11 9 5 5 4-2 14-25 14-24 9-15 11-13 9-10 11-14 7-7 9-11 11-13 2-4h2l18-22 4-4v-2h2l18-22 4-4v-2h2l18-22 11-12 11-14 12-13 9-11 9-10 9-11 12-14 9-10 9-11 4-5v-2l5 3 14 12 14 13 11 9 6 3 8-1 5-5 4-10 7-24 8-21 9-20 1-3 4-2 9-8 10-8 10-9 14-10-1-5-14-15-12-11-10-8-9-8-14-10-10-7-20-12z" fill="#FDB207"/>
<path transform="translate(554,1035)" d="m0 0h406v402l-2 24-4 28-7 30-8 25-9 24-14 29-10 18-18 27-10 13-9 11-12 13-7 8-9 9-8 7-15 13-20 15-20 13-21 12-16 8-17 8-25 9-19 6-30 7-35 5-14 1h-50l-23-2-30-5-28-7-27-9-24-10-21-10-24-14-18-12-12-9-16-13-11-9-22-22-9-11-11-13-14-19-14-22-12-22-11-23-10-26-7-23-5-21-4-21-2-14-1-13v-65l2-20 4-24 8-32 8-24 9-22 12-25 8-14 12-19 12-17 20-25h2l2-4 24-24 8-7 9-8 8-6 18-13 20-13 18-10 24-12 28-11 23-7 26-6 30-5zm116 163-32 3-25 5-12 4-6 4-8 7-7 10-10 21-11 33-8 32-9 38-6 19-8 20-11 21-7 11-12 17-11 13-9 11-9 9-7 8-39 39-8 7-12 11-14 12-15 14-11 9-14 13-8 7-12 11-11 9-13 12-2 1 1 6 11 13 7 8 8 9h2v2l8 7 10 9 10 8 19 14 3 1 10-12 11-14 9-11 8-10 14-17 8-10 11-14 13-16 9-11 13-16 9-10 9-11 26-30 7-8 9-6 17-9 34-14 40-15 30-11 14-6 12-9 10-10 11-16 11-19 15-24 16-24 13-20 5-10 1-4v-7l-2-8-6 1-24 15-20 13-22 14-20 13-3-3-11-24-13-32-6-18-1-10 5-8 7-7 16-12 21-13 23-12 7-5 2-6-4-8-6-2-17-2z" fill="#347C39"/>
<path transform="translate(554,200)" d="m0 0h45l30 3 29 5 28 7 29 10 23 10 17 8 21 12 18 12 14 10 14 11 13 12 8 7v2l4 2 14 15 7 7 11 14 10 13 10 15 11 18 14 27 9 20 11 31 7 27 5 26 3 26 1 13v403h-400l-28-2-26-4-27-6-29-9-28-11-21-10-23-13-18-12-14-10-14-11-10-9-36-36-11-14-10-13-14-21-9-15-14-27-11-27-9-27-8-34-4-27-1-12v-67l2-20 5-27 7-28 8-24 10-24 10-21 14-24 12-18 12-16 12-14 8-10 24-24 11-9 13-11 14-10 15-10 20-12 23-12 29-12 24-8 28-7 22-4zm-159 86-8 4-14 10-12 9-10 9-10 8-12 11-8 7 1 4 9 10 15 16 22 22 8 7 16 15 11 9 17 14 7 6 10 13 10 19 7 19 5 21 3 21 1 14 1 27 7 11 9 10 18 22 12 14 4-1 10-8 15-13 17-14 11-10 10-8 10-9 11-9 13-11 10-9 10-8 10-9 10-8v-4l-10-12-8-10-11-13-9-11-7-7-8-3-24-4-22-6-24-9-21-11-16-12-9-8-9-12-15-26-16-26-13-19-13-18-14-18-5-6zm264 249-11 7-13 12-14 11-11 10-10 8-11 9-11 10-14 11-10 9-11 9-15 13-3 5 1 7 6 7 7 1 8-5 14-12 10-8 15-13 10-8 10-9 14-11 11-10 11-9 13-11 14-12 3-3 1-6-3-7-4-4zm23 34-10 5-15 13-10 8-10 9-14 11-12 11-14 11-11 10-14 11-15 14-3 7v8l4 9 11 13 9 11 14 17 12 14 8 10 12 14 8 10 12 14 11 14 9 10 9 3 10-6 13-11 22-18 10-9v-7l-6-12-10-17-11-19-3-4v-2l10 7 18 13 19 14 7 5 4-1 4-3-1-7-13-25 1-1 6 4 12 9 7 4h7l9-6 14-12 5-4 2-7-2-6-8-11-13-15-8-10-12-14-8-10-12-14-8-10-12-14-9-11-11-13-7-8-8-5z" fill="#0288D0"/>
<path transform="translate(1040,1035)" d="m0 0h406l31 3 24 4 32 8 29 10 23 10 24 12 20 12 20 14 10 8 13 10 15 14 22 22 9 11 13 16 11 16 12 19 13 24 11 24 10 28 7 24 6 29 3 24 1 18v47l-2 28-5 28-7 28-9 27-11 26-12 24-12 20-8 12-12 16-13 16-9 10-12 13-16 15-12 10-14 11-30 20-23 13-28 13-18 7-26 8-25 6-23 4-30 3h-52l-29-3-27-5-24-6-27-9-24-10-21-10-27-16-16-11-16-12-14-12-13-12-8-7-9-10-10-11-9-11-12-16-10-15-12-20-12-23-9-21-8-21-7-24-6-27-4-27-2-21-1-403zm510 202-28 3-28 6-30 10-26 13-27 16-23 14-25 16-28 19-16 12-11 9-5 5-9 11-12 17-9 11-7 7-20 14-7 4-5-5-5-4-4-2h-7l-11 6-10 7-13 9-19 13-6 8-1 9 7 14 13 18 11 16 12 17 16 23 12 17 7 8 4 2h8l7-3 11-7 11-8 17-12 9-7 4-5 1-2v-9l-5-10-2-2v-3l24-16 19-10 18-6 11-2 13 1 10 4 8 9 13 19 12 16 12 17 52 72 12 17 13 18 9 14 3 9v14l-3 10v17l4 10 9 12 6 7 16-6 21-10 18-10 20-13 15-11 17-14 10-9 6-5 7-8 1-5-6-8-8-10-7-9-10-6-14-4-9 2h-20l-11-5-9-7-9-11-11-14-14-18-11-14-12-15-7-9-13-17-12-15-13-17-9-11-10-13-9-12-6-13-2-6-1-20 2-18 7-20 11-20 8-12 12-14 13-12 18-13 16-9 12-5 22-4 37-4h37l15 1 5-5-1-6-5-8-7-3-22-6-23-4-21-2z" fill="#D0342F"/>
</svg>
